#!OML:ASF F:\VICON\USERDATA\Patient Classification 1\PLAYGROUND\JustinFriday\JustinFriday.ASF
:FULLY-SPECIFIED
:DEGREES
4073
root 15.5316 31.3483 46.1235 -368.58 -151.771 -347.234
lowerback 17.0655 -4.35847 -5.7299
upperback 3.11289 -7.15854 -1.09325
thorax -5.61974 -3.5436 3.57422
lowerneck -3.82432 23.5485 -22.4959
upperneck 20.3691 31.6282 -8.80002
head 5.58735 11.5533 1.22759
rclavicle -4.25399e-014 2.8625e-014
rhumerus 9.6827 -1.87688 -68.4715
rradius 109.319
rwrist 14.3404
rhand -43.7951 -16.775
rfingers 7.12502
rthumb -16.624 -46.083
lclavicle -4.25399e-014 2.8625e-014
lhumerus 54.3618 -26.6293 84.132
lradius 56.0396
lwrist -32.1972
lhand -17.0591 -21.6634
lfingers 7.12502
lthumb 9.17828 8.11682
rfemur -24.0356 -7.70944 34.103
rtibia 52.4318
rfoot -20.2354 -11.2988
rtoes 10.7362
lfemur -23.0939 -7.3056 -4.81153
ltibia 41.7673
lfoot -30.194 -3.96482
ltoes -8.67144
4074
root 15.5693 31.3007 46.1362 -370.029 -152.693 -346.305
lowerback 18.0204 -3.94435 -5.51368
upperback 3.48971 -6.6349 -0.580243
thorax -5.7387 -3.31115 3.96747
lowerneck -3.42968 23.6205 -22.3975
upperneck 20.0342 31.5879 -9.28054
head 5.51528 11.5606 1.03287
rclavicle -3.18055e-015 -5.725e-014
rhumerus 10.5053 -1.68644 -68.3309
rradius 108.929
rwrist 15.0031
rhand -44.0173 -16.5157
rfingers 7.12502
rthumb -16.8379 -45.8057
lclavicle -3.18055e-015 -5.725e-014
lhumerus 54.7732 -26.3512 83.9728
lradius 55.6715
lwrist -31.6657
lhand -17.6502 -21.9083
lfingers 7.12502
lthumb 8.60788 7.89621
rfemur -23.1742 -6.77591 35.2774
rtibia 52.7827
rfoot -20.101 -11.9135
rtoes 10.3945
lfemur -21.7572 -6.55256 -3.85617
ltibia 42.6132
lfoot -30.5351 -1.67758
ltoes -9.34858
4075
root 15.557 31.3096 46.1915 -368.239 -152.247 -347.82
lowerback 17.1432 -4.14162 -5.94943
upperback 3.10612 -6.90628 -0.865441
thorax -5.63707 -3.4161 3.89457
lowerneck -4.15063 23.2008 -22.4647
upperneck 20.7932 31.3567 -8.80054
head 5.79044 11.3315 1.30018
rclavicle -2.66371e-014 -5.08889e-014
rhumerus 11.0357 -1.37938 -68.0889
rradius 108.569
rwrist 15.64
rhand -44.2838 -16.3997
rfingers 7.12502
rthumb -17.0943 -45.6677
lclavicle -2.66371e-014 -5.08889e-014
lhumerus 54.9564 -26.0477 84.0161
lradius 55.4008
lwrist -31.441
lhand -18.1127 -22.1943
lfingers 7.12502
lthumb 8.16156 7.62806
rfemur -24.8978 -7.97242 33.5895
rtibia 53.3772
rfoot -19.8787 -10.7451
rtoes 9.47841
lfemur -22.8271 -6.34568 -5.75519
ltibia 43.4194
lfoot -30.3176 0.474643
ltoes -9.02711
4076
root 15.5654 31.2942 46.2233 -367.602 -152.63 -348.341
lowerback 16.752 -4.01557 -6.16208
upperback 2.92277 -6.73729 -0.824139
thorax -5.60934 -3.31974 3.9948
lowerneck -3.23418 23.5408 -22.2102
upperneck 20.3427 31.4482 -9.28334
head 5.61553 11.4513 1.01808
rclavicle 4.65156e-014 6.36111e-015
rhumerus 11.8579 -1.17931 -68.0894
rradius 108.017
rwrist 16.3704
rhand -44.4534 -16.3539
rfingers 7.12502
rthumb -17.2577 -45.6076
lclavicle 4.65156e-014 6.36111e-015
lhumerus 54.9254 -25.763 84.328
lradius 55.4873
lwrist -31.4853
lhand -18.3013 -22.4205
lfingers 7.12502
lthumb 7.97952 7.40889
rfemur -25.7284 -8.0532 33.1344
rtibia 53.9862
rfoot -19.7559 -10.127
rtoes 9.24375
lfemur -22.9899 -5.3836 -6.38985
ltibia 44.2649
lfoot -29.7703 1.69069
ltoes -7.35061
4077
root 15.5816 31.2643 46.2468 -367.619 -153.265 -348.402
lowerback 16.4926 -3.76152 -6.27097
upperback 3.07637 -6.39475 -0.637536
thorax -5.3059 -3.17203 4.15415
lowerneck -4.3216 22.8932 -22.4025
upperneck 21.2914 31.0634 -8.50769
head 5.94789 11.1339 1.42826
rclavicle 7.87187e-014 2.38542e-014
rhumerus 13.0223 -1.06068 -68.0118
rradius 107.35
rwrist 16.9096
rhand -44.8853 -16.3002
rfingers 7.12502
rthumb -17.6733 -45.517
lclavicle 7.87187e-014 2.38542e-014
lhumerus 55.2768 -25.4735 84.5227
lradius 55.5606
lwrist -31.5085
lhand -18.3649 -22.4487
lfingers 7.12502
lthumb 7.91814 7.38302
rfemur -26.0526 -7.76855 33.1776
rtibia 54.6444
rfoot -19.6862 -9.83048
rtoes 9.04928
lfemur -22.6052 -4.3691 -6.48006
ltibia 45.0508
lfoot -28.9395 2.59328
ltoes -6.06085
4078
root 15.5919 31.2393 46.2831 -367.514 -153.579 -348.758
lowerback 16.4435 -3.60141 -6.49888
upperback 3.21537 -6.22361 -0.56058
thorax -5.11628 -3.10302 4.31773
lowerneck -3.55956 23.1369 -22.1425
upperneck 20.4449 31.1089 -9.38274
head 5.73075 11.259 1.04664
rclavicle -2.38542e-014 1.90833e-014
rhumerus 14.1803 -0.932868 -67.8662
rradius 106.709
rwrist 17.3021
rhand -45.3753 -16.3138
rfingers 7.12502
rthumb -18.1447 -45.4874
lclavicle -2.38542e-014 1.90833e-014
lhumerus 55.7419 -25.1725 84.5747
lradius 55.5815
lwrist -31.4681
lhand -18.3491 -22.3701
lfingers 7.12502
lthumb 7.93342 7.46102
rfemur -26.4373 -7.89438 32.792
rtibia 55.2276
rfoot -19.6336 -9.21211
rtoes 9.31092
lfemur -22.3503 -3.97222 -6.94985
ltibia 45.9187
lfoot -27.9966 3.19575
ltoes -4.51794
